<svg version="1" xmlns="http://www.w3.org/2000/svg" width="1273.333" height="1273.333" viewBox="0 0 955.000000 955.000000"><path d="M32.5 3.1C20 7.5 10.3 16.6 3.9 29.8.8 36.2.8 36.2 1.2 51.3c.5 23.8-3 19 56.7 79 43.9 44.1 49.4 49.9 47.7 50.9-6 3.4-29.1 23.2-41.1 35.2-32.8 32.9-55.6 72.7-61.6 107.4-1.8 11-1.9 18-1.9 213 0 194.6.1 202 1.9 210.7C8 771.2 19 792.2 38.6 815c41.5 48.2 109.2 86.3 198.4 111.5 46.7 13.3 111.3 24.3 155.5 26.7 28.3 1.5 137.7 2.2 149.5.9 5.2-.5 18.3-1.5 29-2.1 49.9-2.7 118.3-15.9 170-33 69.8-22.9 120.4-51.1 158.9-88.4 30.8-30 48.6-63.2 53-99.1 1.5-11.9 1.5-379 .1-392-3.7-32.7-16.7-64.5-38.4-93.9-16.8-22.7-42.5-47.7-66.1-64.2-1.8-1.3 1.1-4.5 47.1-50.6C948.1 78 948.9 77 952.5 63.5c3.1-12 1.2-28.7-4.3-38.8-5.4-10.1-16-18-28.3-21.2-7.2-2-24.1-1.9-30.7 0-10.9 3.3-17.4 9.1-76.3 67.9-49.9 49.9-57 56.6-59.7 56.6-1.6 0-8.3-2.1-14.9-4.6-82.4-31.9-176.5-47.1-277.3-45-71.4 1.5-134.7 10.7-197 28.6-15.5 4.5-38.8 12.3-50.5 17-10.7 4.3-13.5 5.1-15.2 4.2-.8-.5-26.9-26.3-58.1-57.3-35-35-58.9-58-62.5-60.3C67.3 3.8 60.8 1.7 49 1.3c-8.8-.3-11.5 0-16.5 1.8zm20.1 15c12.9 2.4 13.2 2.6 76.4 65.5 40.3 40.2 59.7 58.8 62.2 59.9 7.3 3 12.8 2.1 32.8-5.4 59.5-22.3 117.3-34.6 194-41.3 19.5-1.7 97.3-1.7 118.5 0 68.9 5.6 127.4 17.4 179.2 36.3 9.2 3.3 20.4 7.4 24.8 9 9.2 3.3 14.1 3.6 21.1 1.2 4.4-1.4 9-5.7 44.9-42.1 51.6-52.2 76.8-76.3 83.7-79.9 4.6-2.3 6.5-2.7 13.8-2.7 14.5 0 24.1 4.7 29.5 14.5 2.8 5.1 3 6 3 16.4 0 9.6-.3 11.7-2.4 16-1.9 3.9-13.5 16.2-52.6 55.5-27.7 27.8-51 51.9-51.9 53.7-4 7.9-1.5 12.2 14.1 24.1 31 23.7 52.3 46.7 69.5 75.4 12.2 20.3 20.1 42.6 22.8 64.8.8 7 1 60.9.8 202-.4 213.1.2 194.2-6.9 215.4-9.9 30.1-37.2 62.8-74.7 89.5-43.4 31-109.3 58-179.1 73.6-30.4 6.7-70.9 13.2-97.6 15.6-16.1 1.4-98.9 2.7-130.5 2-7.7-.2-16.6-.1-27.5.1-11.8.4-51.5-2.4-68-4.7-83.5-11.4-147.9-29.6-205.1-57.9-37.3-18.4-61.1-35-85.4-59.5-23.7-23.8-35.9-43.6-42.2-68.6l-2.3-9 .2-188c0-103.4.5-196.8 1.1-207.5 1.1-23.3 2.8-30.4 12.6-50.5 17.9-37 41.1-64.1 80.6-94 14-10.6 16.6-15.7 12-23.2-1.1-1.8-24.2-25.5-51.4-52.8C16 64.9 17.7 67 17.2 51.2c-.4-8.3-.1-9.8 2.2-14.5 3.4-7 7.9-12.2 13.1-15.2 3.6-2.2 6-2.9 13.6-4.4.3-.1 3.2.4 6.5 1z"/><path d="M443 159c-52.3 2.9-104 11-154.6 24.5C267.9 189 238 198.1 238 199c0 .3 4.6 4.5 10.3 9.2 5.6 4.8 47.2 45.8 92.3 91 67.6 67.7 82.7 83.3 84.9 87.8 7.5 14.9 2.1 32.4-12.6 40.5-4.7 2.6-6.4 3-13.4 3-15.1 0-7.8 6.4-117-102.6-66.1-65.9-97.9-97-99.8-97.4-5.1-1.3-9.8.6-23 9.5-43.7 29.2-71.2 64.4-79.4 101.5-1.9 8.7-2.1 28.7-.4 37.5 5.1 26.1 18.9 50.7 40.7 72.5 31.5 31.5 77.1 58.4 130.1 76.8 110.1 38.3 238 46.8 362.3 24.1 59.1-10.8 124.8-34.6 168.8-61.1 34.3-20.6 66.6-52.1 79.9-77.8 13.4-26.1 16.5-54.4 8.7-81.3-3.4-11.8-10.8-26.8-18.5-37.7-7.2-10.1-29.6-33.3-40.8-42-11.7-9.2-28.6-20.3-32.9-21.6-8.4-2.5-3.7-6.7-108.7 98.1-76.1 75.9-98 97.2-101.8 99-15 7-32.7.7-40.4-14.4-4.8-9.3-3.2-22.5 3.7-31.4 1.2-1.5 40.3-41 87-87.7l84.8-85 2-6.5c1.1-3.6 1.7-6.8 1.4-7.2-1.1-1.1-36.7-11.4-54.7-15.9-40.2-10-83.2-16.8-124-19.9-20.2-1.5-65.3-2-84.5-1z"/></svg>